<?xml version="1.0" encoding="UTF-8" standalone="no"?>
<!-- Created with Inkscape (http://www.inkscape.org/) -->

<svg
   width="83.603165mm"
   height="83.47554mm"
   viewBox="0 0 83.603165 83.47554"
   version="1.1"
   id="svg5"
   xmlns:inkscape="http://www.inkscape.org/namespaces/inkscape"
   xmlns:sodipodi="http://sodipodi.sourceforge.net/DTD/sodipodi-0.dtd"
   xmlns="http://www.w3.org/2000/svg"
   xmlns:svg="http://www.w3.org/2000/svg">
  <sodipodi:namedview
     id="namedview7"
     pagecolor="#ffffff"
     bordercolor="#000000"
     borderopacity="0.25"
     inkscape:showpageshadow="2"
     inkscape:pageopacity="0.0"
     inkscape:pagecheckerboard="0"
     inkscape:deskcolor="#d1d1d1"
     inkscape:document-units="mm"
     showgrid="false" />
  <defs
     id="defs2">
    <inkscape:path-effect
       effect="fillet_chamfer"
       id="path-effect412"
       is_visible="true"
       lpeversion="1"
       nodesatellites_param="F,0,0,1,0,5.2916667,0,1 @ F,0,0,1,0,5.2916667,0,1 @ F,0,0,1,0,5.2916667,0,1 @ F,0,0,1,0,0.128158,0,1 @ F,0,0,1,0,0,0,1 @ F,0,0,1,0,5.2916667,0,1 @ F,0,0,1,0,5.2916667,0,1 @ F,0,0,1,0,5.2916667,0,1"
       unit="px"
       method="auto"
       mode="F"
       radius="20"
       chamfer_steps="1"
       flexible="false"
       use_knot_distance="true"
       apply_no_radius="true"
       apply_with_radius="true"
       only_selected="false"
       hide_knots="false" />
  </defs>
  <g
     inkscape:label="Layer 1"
     inkscape:groupmode="layer"
     id="layer1"
     transform="translate(-47.879247,-123.60072)">
    <path
       id="rect169"
       style="fill:#42414d;fill-opacity:1;stroke-width:0.264583"
       d="m 95.032622,127.74731 -21.245574,26.79771 a 10.948252,10.948252 154.20392 0 1 -8.579142,4.14659 H 53.170915 a 5.2916667,5.2916667 135 0 0 -5.291667,5.29167 v 10.43294 a 0.128158,0.128158 45 0 0 0.128158,0.12816 v 27.2402 a 5.2916667,5.2916667 45 0 0 5.291667,5.29167 h 72.891667 a 5.2916667,5.2916667 135 0 0 5.29167,-5.29167 v -72.89219 a 5.2916667,5.2916667 45 0 0 -5.29167,-5.29167 l -22.57898,0 a 10.948252,10.948252 154.20392 0 0 -8.579138,4.14659 z"
       inkscape:path-effect="#path-effect412"
       inkscape:original-d="M 98.320097,123.60072 70.499573,158.69161 H 47.879248 v 15.85277 h 0.128158 v 32.53187 h 83.475004 v -83.47553 z"
       sodipodi:nodetypes="ccccccccc" />
  </g>
</svg>
